<svg width="800" height="600" xmlns="http://www.w3.org/2000/svg">

 <g>
  <title>Layer 1</title>
  <path stroke="#000" id="svg_1" d="m461.77766,580.16185c-11.90777,-15.16433 -30.42486,-16.8936 -34.87746,-38.47804c-3.48995,-11.74018 -36.39049,-27.48609 -16.91837,-6.41407c15.03592,12.69782 32.89953,59.5334 -4.09202,44.73566c-28.13484,-9.61384 -29.34128,-39.30047 -36.88275,-61.5258c-24.52435,-15.84223 6.34059,-49.33946 -20.06516,-69.63754c-22.411,-21.18877 -6.80315,-60.8722 -38.8266,-75.89621c-16.07364,-6.07418 -23.03106,35.86525 -25.73743,5.18381c-8.80605,-31.03119 -39.90669,15.08454 -60.64547,10.19555c-16.735,-1.35456 27.99332,-12.18695 6.64873,-15.10204c-12.54899,6.39619 -24.15983,17.45559 -26.14518,-0.85099c-15.09568,-8.34754 -46.75165,-21.67823 -45.92932,-34.9391c13.10906,-3.83426 57.36374,7.26038 49.69458,-8.15534c-13.15981,-4.65001 -15.55036,-17.36111 0.56782,-8.83029c31.76443,0.92776 69.00137,-10.87785 95.4314,11.70169c13.78599,7.8979 27.34087,36.22368 34.72118,8.69632c23.79068,-26.71677 71.79642,-28.97977 86.46228,-63.5713c3.54895,-16.73582 -10.89972,-26.28409 -23.17431,-29.67404c-2.38803,-5.49999 -6.45322,-28.85089 -16.60348,-17.06729c0.46263,-10.31344 9.9841,-34.97651 -11.10629,-24.05816c-2.13915,-21.96699 18.02965,-43.8828 -8.65096,-59.87943c24.9983,4.31776 20.06874,-22.21721 14.62388,-26.42556c14.81877,-1.95918 32.2093,-14.37517 24.03874,-29.75647c16.09279,27.20195 16.6508,-33.001 29.8999,-7.05172c24.38506,3.72219 -7.57554,-20.28455 14.85273,-14.92617c12.8068,0.40801 9.96246,-13.06525 21.46735,-2.89652c15.22654,-7.73551 -11.67265,-31.11349 12.91223,-14.8702c8.26455,6.685 34.57656,24.19401 29.85558,1.08933c23.36112,23.20237 41.7451,-21.55105 61.15729,-30.81905c7.69989,-8.57697 24.44396,-17.65407 9.00154,-1.28157c-10.25176,20.86989 -45.03252,43.44668 -35.67542,64.18395c-8.46964,7.17934 17.08878,16.20252 -3.25679,13.48452c-12.0533,12.11419 16.15956,34.77909 18.41108,53.84495c-6.46247,13.0635 -31.07004,27.89404 -41.02442,27.4253c3.63823,-16.81927 -4.24895,-38.74128 -27.28595,-29.23432c12.90487,21.98508 30.35207,42.98777 41.28336,66.89615c10.68455,23.50308 28.0077,50.64438 50.79872,20.3959c14.52634,-19.27911 56.0245,-19.00003 44.6253,12.30933c-5.82731,30.74487 9.77416,71.32191 -20.2037,92.50006c-18.0843,32.44592 -38.13317,-12.06409 -23.92535,-28.90262c-3.6203,-4.81192 -6.42099,-8.20868 4.17293,-14.78625c-2.18747,-4.93387 30.48751,-23.4964 14.01944,-34.88666c-18.72973,19.77475 -46.13565,42.66411 -38.51923,72.05901c6.18156,19.69813 -44.80098,53.46879 -40.72413,20.7779c0.91319,-12.70479 20.39482,-37.32808 15.91041,-40.50031c-14.22336,24.84822 -34.45678,48.72024 -65.03154,56.0977c-25.4322,1.40324 -38.75461,20.46906 -26.67734,41.62279c2.30807,29.97579 -14.68632,57.10537 -18.59884,86.29102c7.27291,30.95523 51.55238,37.2105 57.56267,68.7872c10.32753,21.20692 -15.50568,18.07288 -27.54169,12.1389l0.00006,0.00002zm-62.96916,-92.34943c-3.72783,-13.9927 -11.39942,36.37415 -1.94279,9.64147l1.41568,-4.72292l0.52712,-4.91856l0,0.00002z" fill="#000000"/>
  <path transform="rotate(60 466 292)" stroke="#000" id="svg_3" d="m457.48318,229l16.05206,35.46691l-6.61892,4.18565l20.21261,30.38737l-6.61595,5.07481l24.98701,50.88525l-42.38243,-38.99515l8.08386,-5.41534l-26.33333,-24.97676l9.43611,-7.71863l-27.8042,-26.20172l30.98318,-22.69239z" fill="#fff"/>
 </g>
</svg>