<svg width="800" height="600" xmlns="http://www.w3.org/2000/svg">
 <g id="Layer_1">
  <title>Layer 1</title>
  <path id="svg_1" d="m425.32632,236.08815c0,0 12.92258,6.48339 14.21486,11.34586c1.29206,4.8622 60.73629,-14.58714 73.65887,-25.933c12.92258,-11.34586 42.64458,-10.0887 42.64458,-30.79575c0,-6.48339 -5.89578,-23.29943 5.16912,-17.82925c2.15182,1.06424 2.58478,9.72522 2.58478,9.72522c0,0 -2.26138,-8.00306 -5.57304,-5.77444c-1.617,1.08852 2.34498,14.50446 4.28054,18.74094c0,0 108.18149,-21.04952 131.81081,-12.9665c9.47672,3.24128 41.35274,8.10403 40.491,25.3927c0,0 -43.93488,18.89103 -50.82902,88.06508c-0.8613,8.64406 -56.35696,-11.00503 -93.04285,76.17837c-8.18444,19.44962 -10.33824,12.42592 -12.9228,11.34586c-2.58456,-1.08061 -54.2751,-41.60158 -96.91969,35.65767c0,0 2.1538,-0.54003 2.58456,1.62092c0.43076,2.16122 21.10702,-5.94281 21.96854,8.10458c0,0 -9.63402,-5.48055 -7.48022,-0.07723c2.15358,5.4025 1.06128,11.59718 -0.27324,8.18071c-0.25564,-0.65437 -5.59988,-6.48311 -3.87706,-1.62037c1.72304,4.8622 -8.27772,16.01868 -8.8066,14.38248c-2.10474,-6.51204 4.92998,-13.84245 -7.9926,-20.8656c-12.9228,-7.02369 -48.67544,9.72467 -67.19769,61.59095c0,0 -1.29228,2.70125 -3.87684,-1.62092c-2.58456,-4.32217 -20.67626,-62.13153 -58.15194,-64.83278c0,0 -1.72304,8.10403 -7.75346,9.72494c-6.03064,1.62092 -4.73814,26.47304 -7.75368,17.82897c-3.01532,-8.64433 -2.39228,1.67113 -2.58456,0c-0.69872,-6.07952 2.2099,-15.56924 -6.4614,-11.34586c-1.13586,0.55313 -1.72304,9.18491 -3.87662,4.86275c-2.1538,-4.32217 2.65782,-12.06217 5.67292,-15.30373c3.01532,-3.24156 -10.04806,-3.59958 -4.38064,-7.38799c5.7365,-3.83453 21.96832,8.64461 15.50714,-4.8622c-6.4614,-13.50708 -43.60378,-76.59206 -96.91969,-34.03731c-9.47672,7.56372 -6.4614,-1.62119 -11.63052,-9.72549c-5.1689,-8.10376 -41.3897,-85.29615 -90.45829,-76.17837c-11.63052,2.16149 -6.4614,-11.34559 -10.33802,-16.20806c-3.87706,-4.86247 -27.28154,-89.91057 -50.39826,-82.66176c-5.16912,1.62037 -1.46102,-27.77059 42.64458,-24.31236c6.89216,0.54003 2.58456,-6.48339 10.33824,-4.86275c7.75346,1.62119 103.38087,18.36955 113.71889,22.69172c10.33824,4.32217 21.96854,8.43176 21.96854,-17.82897c0,-0.50674 -1.6962,-1.82339 -5.16912,1.62064c-1.5345,-1.72215 11.19976,-10.80555 9.04596,6.48339c-2.1538,17.28867 -6.86158,12.6415 1.29228,17.8287c11.5456,7.34487 20.6932,20.08516 38.76774,21.07108c9.90748,0.54031 59.86773,31.30194 71.07453,27.55392c6.4614,-2.16122 15.07638,-7.02369 11.6303,-9.72522c-3.44586,-2.70098 -15.07638,-19.98992 -14.21486,-29.17456c0.86152,-9.18464 3.44608,-16.20806 0,-19.44989c-3.44608,-3.24156 3.87684,-12.4262 10.33824,-1.62092c6.46118,10.80555 6.46118,18.90958 11.6303,19.44989c5.16912,0.54058 14.64584,-2.70098 18.0917,0c0,0 15.0766,-27.01334 23.2606,-22.69172c8.18444,4.32244 1.72304,10.26525 2.58456,14.58742c0.86152,4.32217 -8.61498,36.7391 -18.09148,35.65822z" stroke="#000" fill="#000000"/>
  <path stroke="#000" id="svg_3" d="m366.90755,301.74076c-1.7154,7.19518 -6.09714,14.07168 -6.3922,21.49129c0.39259,4.29594 -3.498,6.6035 -8.82412,6.52225c-5.7284,4.39866 0.70706,11.35025 7.1886,13.12586c6.61478,3.28913 14.82088,-0.38612 21.37342,2.56436c8.70068,5.03834 12.33302,13.97142 9.33129,21.80291c-2.98452,6.46491 12.29307,4.11368 6.54665,-1.05422c-4.43818,-5.05123 8.36629,-3.38119 5.08827,1.41448c-0.61942,3.8496 3.83323,5.09561 1.85165,8.82517c5.16233,2.19277 -0.43274,3.42053 -3.57708,3.83456c-7.36333,2.71909 1.33188,-4.87082 -4.50134,-7.11577c-5.34177,0.85999 -1.72217,7.48637 -3.55571,6.72103c-3.77465,-2.18954 -3.77186,-10.37561 -10.107,-5.0343c-2.10257,-6.58144 1.73375,-13.43574 -1.22153,-19.97898c1.2106,-4.88657 -9.20451,-6.57208 -7.88718,-0.90448c0.52515,8.64996 -3.02067,17.2827 -0.98562,25.89004c2.80283,5.30894 10.64191,7.70055 15.56194,11.79731c4.04068,3.15883 9.27907,6.53614 15.56817,5.54163c7.13315,-0.22905 14.27945,-0.71706 21.38042,0.12187c8.93157,0.20868 15.74971,-5.02111 23.3719,-7.70753c8.96048,-5.27063 7.54968,-14.68507 6.65643,-22.18413c-1.09529,-4.62985 1.30819,-9.2618 0.86028,-13.84832c-6.46002,-5.85525 -11.76017,4.43652 -9.91994,8.8582c-0.00045,5.56214 1.44148,12.72713 -5.72106,16.35037c-5.91102,-0.11041 -11.53661,1.48008 -17.49323,0.64847c-4.83346,2.12625 -12.66246,2.07165 -14.25789,-2.98996c-0.63696,-4.49505 2.11254,-9.20765 -1.62327,-13.40278c3.28236,2.09417 9.00905,-1.80866 5.81751,2.88632c-3.89276,3.82171 3.29624,9.71072 6.00256,4.06981c0.89788,-3.78472 -3.88384,-8.80786 3.9763,-7.99701c1.60296,1.33498 -5.47396,10.67317 4.19974,8.3133c6.89682,-1.11911 -1.227,-9.13337 8.11264,-9.16122c4.52005,-3.94195 3.30303,-11.33062 10.21708,-14.32111c7.70912,-3.86474 19.74567,-1.07455 25.24798,-7.61947c4.68995,-3.34928 2.48288,-12.63237 -5.60559,-9.55643c-10.10797,0.72994 -2.08589,-10.1415 -2.36791,-14.21515c2.38161,-3.548 -2.89229,-11.01655 -1.07625,-11.80893c3.43146,3.88914 4.66047,8.43792 3.92249,12.98301c-0.06342,3.85439 -2.27001,14.30031 4.96368,7.86089c2.4488,-4.48771 1.73659,-9.57085 3.48123,-14.23979c3.36496,-10.08013 -2.66007,-20.16586 -9.37686,-28.70366c-5.72057,-4.59631 -12.983,-8.26032 -19.80298,-11.86784c-11.47144,-3.196 -24.13769,-3.76855 -36.25328,-2.96756c-10.71673,1.37604 -22.04963,2.82678 -30.58687,8.23951c-8.32027,3.63164 -16.28867,8.45502 -19.57802,15.43318c-2.86652,5.62161 -7.88617,11.34653 -5.60479,17.59133c2.18184,5.20574 1.02464,10.61208 1.3779,15.93288c3.71938,6.08114 7.23094,-3.11176 6.88286,-6.15246c0.20591,-5.76616 4.31264,-10.87005 7.33872,-15.98893l-0.00001,-0.00001zm68.315,12.37053c7.64866,0.406 17.33302,3.56119 17.54175,10.13913c1.16302,6.60113 -6.03734,12.99975 -15.26478,12.35241c-8.38148,-0.51 -13.74191,-5.87308 -13.18536,-11.90272c-2.80609,-4.32331 1.56068,-8.95364 7.4213,-9.94749c1.13649,-0.28309 2.30468,-0.49499 3.48709,-0.64133l0,0zm-51.61557,0.56225c8.87301,-1.16895 18.96823,2.90857 18.99786,10.1842c0.83336,7.03361 -9.24733,8.41163 -16.12394,10.17366c-4.7583,2.27593 -9.70104,0.15687 -13.65481,-2.13621c-5.12982,-3.97749 -3.62205,-11.99272 1.79452,-15.62349c2.6266,-1.43999 5.87811,-2.00606 8.98636,-2.59816zm30.36212,18.55526c4.29553,4.37352 9.45234,11.04284 3.8973,16.00661c-4.93136,2.92969 -5.55308,-4.16716 -10.72901,-0.82484c-4.85563,-3.15018 -0.37723,-9.56049 3.02976,-12.76068c1.12292,-0.92154 2.40793,-1.73284 3.80196,-2.42109z" fill="#ffffff"/>
 </g>
</svg>